<?xml version="1.0" encoding="UTF-8"?>
<svg version="1.1" xmlns="http://www.w3.org/2000/svg" width="500" height="500">
<path d="M0 0 C165 0 330 0 500 0 C500 165 500 330 500 500 C335 500 170 500 0 500 C0 335 0 170 0 0 Z " fill="#2D51A2" transform="translate(0,0)"/>
<path d="M0 0 C0.79072663 -0.00367669 1.58145325 -0.00735338 2.39614129 -0.01114148 C5.01884144 -0.022065 7.64150183 -0.0260026 10.26422119 -0.02983093 C12.15576296 -0.03610399 14.04730352 -0.04275152 15.93884277 -0.04974365 C22.12574421 -0.0706803 28.3126456 -0.08113396 34.49957275 -0.09111023 C36.63678245 -0.0951612 38.77399203 -0.09927822 40.91120148 -0.10346031 C50.9518611 -0.12248645 60.99251347 -0.13672477 71.03318763 -0.14507228 C82.59501732 -0.15484552 94.15665561 -0.1811783 105.71841788 -0.22157317 C114.67584253 -0.25178788 123.63321244 -0.26654609 132.59068704 -0.26985329 C137.93147316 -0.2721969 143.2720542 -0.28106825 148.61278534 -0.30631447 C153.63947577 -0.32969524 158.66582745 -0.33378836 163.69255829 -0.32355309 C165.52865734 -0.3230601 167.36477366 -0.32930972 169.20082092 -0.34310913 C187.84596964 -0.47531176 203.42034318 3.56655993 217.34332275 16.71357727 C222.39630196 22.06732905 226.91634686 27.86868946 228.64019775 35.14717102 C227.74429932 34.49748352 226.84840088 33.84779602 225.925354 33.17842102 C220.60224524 30.14659253 215.04915162 30.56370282 209.07769775 30.64717102 C207.41190674 30.6239679 207.41190674 30.6239679 205.71246338 30.60029602 C199.41384859 30.63045097 195.42852788 30.90583818 190.64019775 35.14717102 C189.46457275 34.18810852 189.46457275 34.18810852 188.26519775 33.20967102 C184.59761057 30.32799538 182.90973227 30.02059255 178.31494141 30.00672913 C176.61995766 29.99816391 176.61995766 29.99816391 174.89073181 29.98942566 C173.64499893 29.9883078 172.39926605 29.98718994 171.11578369 29.98603821 C169.80839737 29.9810733 168.50101105 29.9761084 167.15400696 29.97099304 C163.56086243 29.95785919 159.96773659 29.95142187 156.3745718 29.94698238 C154.12954646 29.94405251 151.88452624 29.93994781 149.63950348 29.93547821 C142.61503649 29.92179907 135.59058118 29.91213514 128.56610179 29.90827632 C120.45835573 29.90379802 112.35077846 29.88626259 104.24308372 29.85727572 C97.9763313 29.835649 91.70962633 29.82557147 85.442837 29.8242352 C81.70012442 29.82318764 77.95757043 29.81729065 74.21489716 29.79941559 C70.03722423 29.77985201 65.85990362 29.78422781 61.68218994 29.79072571 C59.82573601 29.77690353 59.82573601 29.77690353 57.93177795 29.76280212 C49.87687397 29.79374304 49.87687397 29.79374304 42.64019775 33.14717102 C41.65019775 33.64217102 41.65019775 33.64217102 40.64019775 34.14717102 C39.65019775 32.16717102 39.65019775 32.16717102 38.64019775 30.14717102 C28.74830399 30.12404675 18.85641662 30.1062555 8.96450138 30.09535885 C4.37177135 30.0901302 -0.22094025 30.0830329 -4.81365967 30.07173157 C-9.24213913 30.06090202 -13.67060081 30.05489404 -18.09909248 30.05229378 C-19.79245852 30.05043965 -21.48582354 30.04681927 -23.17918205 30.04144096 C-25.54271456 30.03422962 -27.9061727 30.03318012 -30.26971436 30.03364563 C-30.97677521 30.03005035 -31.68383606 30.02645508 -32.412323 30.02275085 C-35.66618272 29.75067657 -35.66618272 29.75067657 -38.35980225 31.14717102 C-38.45299674 32.68200072 -38.47726025 34.22109185 -38.47332764 35.75874329 C-38.47321434 37.23015526 -38.47321434 37.23015526 -38.47309875 38.73129272 C-38.46793747 39.79794662 -38.46277618 40.86460052 -38.4574585 41.96357727 C-38.45533607 43.59286415 -38.45533607 43.59286415 -38.45317078 45.25506592 C-38.44755273 48.73996177 -38.43499717 52.22479444 -38.42230225 55.70967102 C-38.41728957 58.06578989 -38.41272626 60.42190976 -38.40863037 62.7780304 C-38.39757744 68.56776566 -38.38082176 74.35746383 -38.35980225 80.14717102 C-37.77667267 80.11622345 -37.19354309 80.08527588 -36.59274292 80.0533905 C-33.89286397 79.91202877 -31.192753 79.77567397 -28.49261475 79.63935852 C-27.57584961 79.59061584 -26.65908447 79.54187317 -25.71453857 79.49165344 C-18.78822633 79.14701527 -11.90168269 79.08891919 -4.97161865 79.36103821 C-0.88385685 79.49344308 -0.88385685 79.49344308 2.63238525 77.63935852 C2.96496338 77.14693665 3.2975415 76.65451477 3.64019775 76.14717102 C4.24090088 76.63443665 4.841604 77.12170227 5.46051025 77.62373352 C10.11800318 79.85521048 14.41787721 79.58277325 19.51519775 79.52217102 C20.96732666 79.53957336 20.96732666 79.53957336 22.4487915 79.55732727 C28.28845865 79.53349189 32.45982978 78.87443996 37.64019775 76.14717102 C37.97019775 77.13717102 38.30019775 78.12717102 38.64019775 79.14717102 C44.06619302 79.22163573 49.49188716 79.27592139 54.91827393 79.31196594 C56.76207668 79.3270009 58.60584397 79.34743435 60.44952393 79.37348938 C63.10822325 79.41010663 65.76644746 79.42695046 68.425354 79.44013977 C69.2423024 79.45562363 70.05925079 79.47110748 70.9009552 79.48706055 C76.23331865 79.48860906 79.87496708 78.5618145 84.64019775 76.14717102 C85.63019775 77.63217102 85.63019775 77.63217102 86.64019775 79.14717102 C89.09485625 79.43396148 91.29664615 79.52590108 93.75201416 79.48774719 C94.48382401 79.48818527 95.21563385 79.48862335 95.96961975 79.48907471 C98.3939359 79.48698091 100.81756459 79.46362292 103.24176025 79.44013977 C104.92041648 79.4345459 106.59907761 79.43027481 108.27774048 79.42727661 C112.70018998 79.41581135 117.12234482 79.38632993 121.54467773 79.35316467 C126.05564385 79.32249986 130.56665749 79.30877897 135.07769775 79.2936554 C143.93201485 79.26146159 152.78603572 79.20868016 161.64019775 79.14717102 C161.97019775 73.86717102 162.30019775 68.58717102 162.64019775 63.14717102 C165.28019775 63.14717102 167.92019775 63.14717102 170.64019775 63.14717102 C170.97019775 68.75717102 171.30019775 74.36717102 171.64019775 80.14717102 C177.91019775 79.81717102 184.18019775 79.48717102 190.64019775 79.14717102 C191.63019775 77.16717102 191.63019775 77.16717102 192.64019775 75.14717102 C193.40332275 75.79685852 194.16644775 76.44654602 194.95269775 77.11592102 C199.50936265 80.14300122 204.3430838 79.73147522 209.64019775 79.64717102 C210.61215088 79.66263977 211.584104 79.67810852 212.58551025 79.69404602 C218.40172432 79.66235003 222.16475495 79.23101258 226.64019775 75.14717102 C229.49942427 71.22298685 230.04190663 68.35232245 230.1519165 63.53388977 C230.18736572 62.2867218 230.22281494 61.03955383 230.25933838 59.7545929 C230.28189697 58.46101868 230.30445557 57.16744446 230.32769775 55.83467102 C230.36185791 54.52176086 230.39601807 53.20885071 230.43121338 51.8561554 C230.51359047 48.61991251 230.58277791 45.38393717 230.64019775 42.14717102 C234.20018591 45.70715918 233.06871638 51.13978233 233.07769775 55.95967102 C233.07351856 65.80653937 232.50338771 73.42696834 227.64019775 82.14717102 C227.20578369 83.01857727 226.77136963 83.88998352 226.3237915 84.78779602 C218.67272032 99.00004222 205.79511993 107.69968284 190.61723518 112.2774353 C182.92651525 114.17487225 174.86000179 113.70172294 166.99542236 113.66474915 C165.04255148 113.67017945 163.0896847 113.67730717 161.13682556 113.68598938 C155.86825909 113.70411643 150.60000837 113.69719962 145.33143687 113.68447304 C139.79840845 113.67429151 134.26540567 113.68375282 128.7323761 113.6900177 C119.44468368 113.69727855 110.15711882 113.68774685 100.8694458 113.6686554 C90.15442307 113.64688333 79.4397048 113.65394687 68.72468942 113.67596102 C59.49881203 113.69415195 50.27302592 113.69665549 41.04713637 113.68620634 C35.54830506 113.67999253 30.04961655 113.67907755 24.5507946 113.69235229 C19.38037398 113.70396426 14.21034346 113.69578781 9.03996468 113.67277527 C7.15024587 113.66751692 5.26049386 113.66895227 3.37078857 113.67782593 C-15.24284678 113.7571286 -29.19963547 109.60553262 -43.043396 96.54170227 C-53.19167683 86.05115227 -58.90774438 73.04956714 -58.92230225 58.45967102 C-58.52628898 41.28646979 -53.34074703 27.5946635 -41.35980225 15.14717102 C-28.93849685 4.21717736 -16.17824096 -0.00414396 0 0 Z " fill="#4D3354" transform="translate(154.35980224609375,264.8528289794922)"/>
<path d="M0 0 C1.94099769 1.41000386 3.74216855 2.89898589 5.55078125 4.47265625 C6.39640625 5.05015625 7.24203125 5.62765625 8.11328125 6.22265625 C19.72242554 16.93878944 23.48534264 32.47471833 27.23828125 47.22265625 C27.52380859 48.33946777 27.80933594 49.4562793 28.10351562 50.60693359 C31.90837561 66.1761177 33.90649147 82.02343257 35.48608398 97.95214844 C35.73834077 100.47325114 36.00650406 102.99234203 36.27539062 105.51171875 C37.15574459 114.07030654 37.71214731 122.55301415 37.7265625 131.16015625 C37.72810837 131.9807251 37.72965424 132.80129395 37.73124695 133.64672852 C37.68348009 139.33995741 37.68348009 139.33995741 36.55078125 140.47265625 C34.90587576 140.56874288 33.25682434 140.59453412 31.6091156 140.59291077 C30.53914337 140.59428543 29.46917114 140.5956601 28.36677551 140.59707642 C27.182827 140.59348114 25.99887848 140.58988586 24.77905273 140.58618164 C22.9207785 140.58640068 22.9207785 140.58640068 21.02496338 140.58662415 C17.61808292 140.58604517 14.21126241 140.58101584 10.80439258 140.57405019 C7.24761299 140.56781618 3.69083267 140.56721281 0.13404846 140.56602478 C-6.60558457 140.5629116 -13.34520146 140.5546984 -20.08482736 140.54467529 C-27.75580273 140.53351373 -35.42677886 140.5280036 -43.09776032 140.52297986 C-58.88158916 140.51251577 -74.66540188 140.4949166 -90.44921875 140.47265625 C-90.46925146 137.49418781 -90.48371422 134.51585767 -90.49511719 131.53735352 C-90.50127045 130.70684731 -90.50742371 129.87634109 -90.51376343 129.02066803 C-90.53838129 120.40664314 -89.70139695 111.95618842 -88.69921875 103.41015625 C-88.51536323 101.79070134 -88.33160834 100.17123501 -88.14794922 98.55175781 C-79.92887751 27.07819667 -79.92887751 27.07819667 -65.44921875 9.47265625 C-64.96066406 8.86164063 -64.47210938 8.250625 -63.96875 7.62109375 C-48.60520563 -9.60124982 -19.11785521 -11.92197989 0 0 Z " fill="#393D55" transform="translate(268.44921875,124.52734375)"/>
<path d="M0 0 C1.04812866 0.00135956 1.04812866 0.00135956 2.11743164 0.00274658 C3.22254845 -0.00732925 3.22254845 -0.00732925 4.34999084 -0.01760864 C6.79215182 -0.0366496 9.2340389 -0.04051579 11.67626953 -0.04266357 C13.37016413 -0.04908705 15.0640576 -0.05581507 16.75794983 -0.06283569 C20.31139703 -0.07482355 23.86474689 -0.07851495 27.41821289 -0.07733154 C31.97611448 -0.07712821 36.53339349 -0.10443749 41.09114742 -0.13887596 C44.59040708 -0.16109107 48.08951561 -0.16517076 51.58883858 -0.16411209 C53.26940623 -0.16647592 54.94997756 -0.17534325 56.630476 -0.19077682 C58.97943859 -0.21032984 61.32704184 -0.2046423 63.67602539 -0.19256592 C64.3727536 -0.20380493 65.06948181 -0.21504395 65.787323 -0.22662354 C67.72886658 -0.20120239 67.72886658 -0.20120239 70.96142578 0.29327393 C72.91676331 2.32363892 72.91676331 2.32363892 73.96142578 4.29327393 C74.55955078 3.81889893 75.15767578 3.34452393 75.77392578 2.85577393 C79.31974263 0.3230476 82.17117968 0.1644804 86.40693665 0.14610291 C87.53830048 0.1389476 88.66966431 0.1317923 89.83531189 0.12442017 C91.07744949 0.12173126 92.3195871 0.11904236 93.59936523 0.11627197 C94.90689758 0.10970078 96.21442993 0.10312958 97.56158447 0.09635925 C101.89927954 0.07533623 106.2369749 0.06495912 110.57470703 0.05499268 C112.06880397 0.05094459 113.56290073 0.04682765 115.0569973 0.04264259 C122.07611829 0.02359547 129.09522878 0.00936295 136.11437064 0.00103062 C144.21366639 -0.00874306 152.31268894 -0.03506776 160.41188842 -0.07547027 C166.67441359 -0.10563748 172.93686046 -0.12043878 179.19945687 -0.12375039 C182.93885848 -0.12610004 186.67796805 -0.13504908 190.41729164 -0.16021156 C194.59013681 -0.18783822 198.76237191 -0.18365934 202.93530273 -0.17669678 C204.17136765 -0.18950684 205.40743256 -0.20231689 206.68095398 -0.21551514 C213.19329572 -0.17584187 216.92020706 0.10750764 221.96142578 4.29327393 C224.96364372 4.60631069 224.96364372 4.60631069 226.79589844 2.82037354 C230.97543972 -0.12698055 236.39171452 0.82479908 241.33642578 0.85577393 C243.02251953 0.82580322 243.02251953 0.82580322 244.74267578 0.79522705 C251.10128512 0.79898509 255.21111951 0.89111714 259.96142578 5.29327393 C263.37240734 8.83647201 263.34719167 11.68536465 263.35986328 16.50811768 C263.36273346 17.20087296 263.36560364 17.89362823 263.36856079 18.6073761 C263.37059736 20.06900858 263.36509587 21.53066857 263.35253906 22.99224854 C263.33650212 25.22016922 263.35238692 27.44626938 263.37158203 29.6741333 C263.36959905 31.0979654 263.36575423 32.52179638 263.35986328 33.94561768 C263.35647949 35.23459961 263.3530957 36.52358154 263.34960938 37.85162354 C262.78984242 42.81453844 261.10289126 45.29101156 257.39892578 48.54327393 C252.48101287 52.07408319 248.11949316 51.54896559 242.21142578 51.60577393 C241.22142578 51.63477783 240.23142578 51.66378174 239.21142578 51.69366455 C233.12083255 51.74659083 229.62623914 51.31548545 224.96142578 47.29327393 C224.30142578 48.61327393 223.64142578 49.93327393 222.96142578 51.29327393 C216.69142578 51.29327393 210.42142578 51.29327393 203.96142578 51.29327393 C202.42875996 48.22794228 202.85866107 45.02573121 202.89892578 41.66827393 C202.9034375 40.96186768 202.90794922 40.25546143 202.91259766 39.52764893 C202.92438703 37.78282117 202.94232254 36.03803693 202.96142578 34.29327393 C200.32142578 34.29327393 197.68142578 34.29327393 194.96142578 34.29327393 C194.97302734 35.43667236 194.98462891 36.5800708 194.99658203 37.75811768 C195.00595866 39.24900147 195.01505899 40.73988701 195.02392578 42.23077393 C195.03230469 42.98552002 195.04068359 43.74026611 195.04931641 44.5178833 C195.05795019 46.44321706 195.01366911 48.36862974 194.96142578 50.29327393 C193.06137789 52.19332182 189.5966829 51.45023541 187.01074219 51.45440674 C186.28389725 51.45937164 185.55705231 51.46433655 184.80818176 51.4694519 C182.39310779 51.48410943 179.97809951 51.49088161 177.56298828 51.49639893 C175.89008583 51.50214763 174.2171834 51.5079054 172.54428101 51.51367188 C169.03195894 51.52419223 165.51965983 51.53002804 162.00732422 51.5335083 C157.50220546 51.5389938 152.99738884 51.56301849 148.49236488 51.59148026 C145.03515736 51.61008617 141.57802287 51.61531115 138.1207695 51.61684418 C136.45974451 51.61987612 134.79872096 51.62792283 133.1377449 51.64102936 C130.81522782 51.65804686 128.49345223 51.65622046 126.17089844 51.64971924 C125.48194992 51.65893402 124.7930014 51.6681488 124.08317566 51.67764282 C121.1296251 51.65168775 119.3830273 51.62229949 117.01083374 49.77099609 C116.4913768 49.03952362 116.4913768 49.03952362 115.96142578 48.29327393 C115.15801758 48.78005615 114.35460937 49.26683838 113.52685547 49.76837158 C109.12672661 51.65026728 105.63966225 51.72688291 100.91455078 51.69171143 C100.06213806 51.6945816 99.20972534 51.69745178 98.33148193 51.70040894 C96.53966605 51.70244178 94.74782757 51.69696671 92.95605469 51.68438721 C90.20604438 51.66824233 87.45748605 51.68430253 84.70751953 51.70343018 C82.9640267 51.70144916 81.22053477 51.69760842 79.47705078 51.69171143 C78.65311829 51.69778412 77.82918579 51.70385681 76.98028564 51.71011353 C74.67333984 51.68145752 74.67333984 51.68145752 70.96142578 51.29327393 C70.30142578 50.30327393 69.64142578 49.31327393 68.96142578 48.29327393 C68.19958984 48.78053955 67.43775391 49.26780518 66.65283203 49.76983643 C61.65097477 51.83409498 57.25351766 51.73189284 51.89892578 51.66827393 C50.42842773 51.68567627 50.42842773 51.68567627 48.92822266 51.70343018 C43.81644321 51.68260826 40.10362297 51.66047938 35.96142578 48.29327393 C35.54728928 48.78124954 35.13315277 49.26922516 34.70646667 49.77198792 C31.72666181 52.3697124 27.90312755 51.65585994 24.13720703 51.58624268 C23.27580612 51.58199783 22.41440521 51.57775299 21.52690125 51.57337952 C18.77559147 51.55658641 16.02501416 51.51893349 13.27392578 51.48077393 C11.40870198 51.46572788 9.54346671 51.45203934 7.67822266 51.4397583 C3.1056748 51.40668086 -1.46632552 51.35489453 -6.03857422 51.29327393 C-7.22893313 48.91255611 -7.17155568 47.44010012 -7.18383789 44.7835083 C-7.19021774 43.8491394 -7.1965976 42.91477051 -7.20317078 41.9520874 C-7.2042836 40.94061646 -7.20539642 39.92914551 -7.20654297 38.88702393 C-7.20987137 37.85138306 -7.21319977 36.81574219 -7.21662903 35.74871826 C-7.22169758 33.55638067 -7.22403738 31.36403534 -7.22387695 29.17169189 C-7.2260652 25.80714305 -7.24422664 22.44292103 -7.26318359 19.07843018 C-7.2661171 16.95212922 -7.26810218 14.8258267 -7.26904297 12.69952393 C-7.27982124 11.1823175 -7.27982124 11.1823175 -7.29081726 9.63446045 C-7.28774063 8.70009155 -7.284664 7.76572266 -7.28149414 6.80303955 C-7.28291916 5.97856323 -7.28434418 5.15408691 -7.28581238 4.30462646 C-6.73738755 -0.156965 -3.81653107 0.05103531 0 0 Z " fill="#0C070D" transform="translate(122.03857421875,293.70672607421875)"/>
<path d="M0 0 C1.22332031 0.3403125 2.44664062 0.680625 3.70703125 1.03125 C26.86253025 8.0899809 46.30572076 23.91588212 58.03710938 45.16259766 C59.77981313 48.48805111 61.3530812 51.88116279 62.875 55.3125 C63.16133301 55.95783691 63.44766602 56.60317383 63.74267578 57.26806641 C68.58514217 68.64480494 69.19059928 80.0685264 69.25 92.3125 C69.2809375 93.8893457 69.2809375 93.8893457 69.3125 95.49804688 C69.3497844 103.0807621 68.18862753 109.75082269 66 117 C65.78085937 117.730979 65.56171875 118.46195801 65.3359375 119.21508789 C60.62271748 134.03043222 52.80853831 145.91038859 42 157 C39.75392362 153.37145669 39.51442538 149.74115007 39.21875 145.5859375 C39.16046021 144.86322662 39.10217041 144.14051575 39.04211426 143.39590454 C38.91844143 141.85373244 38.79838639 140.31126665 38.68164062 138.76855469 C38.37810781 134.76877543 38.04593969 130.77133795 37.71875 126.7734375 C37.6244873 125.60696686 37.6244873 125.60696686 37.52832031 124.41693115 C36.86662946 116.25279513 36.05771668 108.12261818 35 100 C34.86972412 98.95440918 34.86972412 98.95440918 34.73681641 97.88769531 C29.5715561 57.13874234 29.5715561 57.13874234 7.5625 24.125 C-2.39710792 16.94599328 -12.59104499 13.42847001 -24.875 13.5625 C-25.84663086 13.57007324 -26.81826172 13.57764648 -27.81933594 13.58544922 C-34.86912012 13.74766293 -40.73679797 14.58274619 -47 18 C-47.86625 18.44730469 -48.7325 18.89460938 -49.625 19.35546875 C-63.38681749 26.99409661 -68.79542537 38.04271428 -73.0625 52.6875 C-82.53453229 86.84450144 -86.24076377 122.6763884 -88 158 C-99.1188697 153.20314249 -106.17159967 138.56341818 -110.75 128.0625 C-120.40220961 103.47545254 -121.17500756 77.5071541 -110.82543945 53.06665039 C-100.3700667 29.5373228 -81.23389504 11.83223159 -57.5234375 2.21484375 C-39.19928155 -4.1031302 -18.66843089 -5.27910018 0 0 Z " fill="#00ABFC" transform="translate(266,105)"/>
<path d="M0 0 C9.01174365 -0.33794039 16.7883096 1.64748629 23.81640625 7.4453125 C32.06064924 15.24440198 37.0406381 26.45046665 37.80200195 37.79321289 C38.28091803 59.9550068 37.42723183 87.86833095 22.015625 105.75390625 C15.68149462 112.14141414 9.6165187 114.30967598 0.75 114.65625 C-6.84591043 114.46919867 -12.47823414 112.63128796 -18.1796875 107.546875 C-33.06748425 91.39991136 -36.24972641 63.50284423 -35.72265625 42.66796875 C-35.12788363 30.22464346 -31.48158809 16.40120652 -22 7.71875 C-15.01250927 2.40518562 -8.67911363 0.57099432 0 0 Z " fill="#FCFCFD" transform="translate(240.375,131.84375)"/>
<path d="M0 0 C6.373125 -0.061875 12.74625 -0.12375 19.3125 -0.1875 C22.32564331 -0.22846802 22.32564331 -0.22846802 25.3996582 -0.27026367 C26.9916931 -0.27902543 28.5837347 -0.2866701 30.17578125 -0.29296875 C31.00251343 -0.30831665 31.82924561 -0.32366455 32.68103027 -0.33947754 C38.55417036 -0.34216794 38.55417036 -0.34216794 40.72673035 1.32524109 C42.74354757 3.97800408 42.28425921 6.42993987 42.1875 9.6875 C42.14689453 11.45673828 42.14689453 11.45673828 42.10546875 13.26171875 C42.07066406 14.16535156 42.03585937 15.06898438 42 16 C40.02 16.66 38.04 17.32 36 18 C36 19.65 36 21.3 36 23 C37.98 23.66 39.96 24.32 42 25 C42 30.61 42 36.22 42 42 C37.71 42 33.42 42 29 42 C28.67 37.05 28.34 32.1 28 27 C23.38 27 18.76 27 14 27 C13.67 31.95 13.34 36.9 13 42 C8.71 42 4.42 42 0 42 C0 28.14 0 14.28 0 0 Z " fill="#E77BFC" transform="translate(300,299)"/>
<path d="M0 0 C7.31378245 5.85102596 10.48623665 15.99031531 12 25 C13.81241013 47.61799535 11.55950744 74.7590128 -2.125 93.875 C-6.52465792 98.9809188 -11.29926916 102.57894717 -18 104 C-30.63431716 104.91045523 -30.63431716 104.91045523 -35 102 C-29.555 101.01 -29.555 101.01 -24 100 C-24.969375 99.566875 -25.93875 99.13375 -26.9375 98.6875 C-30 97 -30 97 -31 94 C-26.71 94 -22.42 94 -18 94 C-18 94.99 -18 95.98 -18 97 C-12.70810708 93.575834 -9.63426558 88.61865507 -7 83 C-6.1715433 79.00540696 -5.92020542 75.33870689 -6.078125 71.26953125 C-6.10390625 70.21958984 -6.1296875 69.16964844 -6.15625 68.08789062 C-6.21909946 65.89208771 -6.29739783 63.69667616 -6.390625 61.50195312 C-6.41125 60.45587891 -6.431875 59.40980469 -6.453125 58.33203125 C-6.48567383 57.38046143 -6.51822266 56.4288916 -6.55175781 55.44848633 C-6 53 -6 53 -3.53417969 51.35424805 C-2.69790039 50.90734619 -1.86162109 50.46044434 -1 50 C-0.67 49.01 -0.34 48.02 0 47 C-2.97 46.505 -2.97 46.505 -6 46 C-6 44.68 -6 43.36 -6 42 C-4.02 42.33 -2.04 42.66 0 43 C0 42.34 0 41.68 0 41 C-1.175625 41.061875 -1.175625 41.061875 -2.375 41.125 C-5 41 -5 41 -7 39 C-7.125 35.875 -7.125 35.875 -7 33 C-4.29120665 31.64560332 -1.99066732 31.93498549 1 32 C1 31.01 1 30.02 1 29 C0.21625 29.04125 -0.5675 29.0825 -1.375 29.125 C-4 29 -4 29 -6 27 C-6.19893799 24.47524284 -6.27847435 22.08485251 -6.25 19.5625 C-6.25773437 18.88123047 -6.26546875 18.19996094 -6.2734375 17.49804688 C-6.25889434 13.78590558 -6.10940418 12.16410628 -4 9 C-2.68 9.66 -1.36 10.32 0 11 C0 7.37 0 3.74 0 0 Z " fill="#D2D3D9" transform="translate(266,142)"/>
<path d="M0 0 C0.66 0.33 1.32 0.66 2 1 C1.113125 1.94875 0.22625 2.8975 -0.6875 3.875 C-21.58120132 28.73214349 -22.68616012 75.967958 -25 107 C-34.68629323 97.60622097 -38.03634595 82.46928722 -38.47509766 69.32006836 C-38.66684633 48.56797394 -33.0949496 30.61113939 -19 15 C-18.43539062 14.36578125 -17.87078125 13.7315625 -17.2890625 13.078125 C-12.36515358 7.85369582 -6.43636784 3.21818392 0 0 Z " fill="#1099E7" transform="translate(205,130)"/>
<path d="M0 0 C0.99386719 -0.02449219 1.98773438 -0.04898437 3.01171875 -0.07421875 C10.33516174 -0.10363017 10.33516174 -0.10363017 14.2578125 2.2734375 C18.48478867 7.03099645 17.42306881 13.02692939 17.47509766 19.06860352 C17.49163807 20.47599852 17.51890393 21.88331016 17.55712891 23.2902832 C17.61210174 25.32547295 17.63379877 27.35869759 17.6484375 29.39453125 C17.6781665 31.22141479 17.6781665 31.22141479 17.70849609 33.08520508 C16.96440605 37.28044079 15.36942092 38.71389039 12.125 41.375 C8.51021286 43.18239357 4.29267454 42.60256068 0.3125 42.625 C-0.59048828 42.645625 -1.49347656 42.66625 -2.42382812 42.6875 C-11.01963861 42.73802644 -11.01963861 42.73802644 -14.875 39.375 C-18.28028171 34.10087442 -17.20270033 27.47203161 -17.1875 21.4375 C-17.20361328 20.16197266 -17.21972656 18.88644531 -17.23632812 17.57226562 C-17.23697266 16.34314453 -17.23761719 15.11402344 -17.23828125 13.84765625 C-17.24275269 12.16555054 -17.24275269 12.16555054 -17.24731445 10.44946289 C-16.82818784 6.98843903 -15.95504371 5.14930672 -13.875 2.375 C-9.42784623 -0.58976918 -5.23265015 0.00673443 0 0 Z " fill="#E57AF9" transform="translate(363.875,298.625)"/>
<path d="M0 0 C8.71389416 1.02516402 14.94401198 8.22612323 21 14 C21.70640625 14.66773438 22.4128125 15.33546875 23.140625 16.0234375 C35.74851188 28.97878583 41.17679686 47.11122614 41.1875 64.75 C41.19974609 65.79671875 41.21199219 66.8434375 41.22460938 67.921875 C41.24167351 77.02274831 39.64359598 84.6748802 36.625 93.25 C36.22539062 94.41015625 35.82578125 95.5703125 35.4140625 96.765625 C33.98980956 100.02330852 32.34414272 102.34662995 30 105 C28.711093 102.422186 28.63120554 100.22166646 28.3515625 97.34765625 C28.23522461 96.18878906 28.11888672 95.02992188 27.99902344 93.8359375 C27.8755957 92.59070313 27.75216797 91.34546875 27.625 90.0625 C23.44392499 41.20430159 23.44392499 41.20430159 0 0 Z " fill="#1099E6" transform="translate(275,130)"/>
<path d="M0 0 C1.55521173 0.00031721 3.11044535 0.0116478 4.66552734 0.03173828 C5.89316299 0.03598312 5.89316299 0.03598312 7.14559937 0.04031372 C9.76436877 0.05152546 12.38279848 0.07663149 15.00146484 0.10205078 C16.77489741 0.11207931 18.54833533 0.12120538 20.32177734 0.12939453 C24.6734711 0.151468 29.02491034 0.18600434 33.37646484 0.22705078 C33.37646484 3.19705078 33.37646484 6.16705078 33.37646484 9.22705078 C20.01146484 9.72205078 20.01146484 9.72205078 6.37646484 10.22705078 C6.37646484 11.87705078 6.37646484 13.52705078 6.37646484 15.22705078 C7.01672607 15.23115967 7.6569873 15.23526855 8.31665039 15.23950195 C11.23334389 15.27251116 14.14796868 15.34316104 17.06396484 15.41455078 C18.57506836 15.42325195 18.57506836 15.42325195 20.11669922 15.43212891 C24.77401828 15.57046512 27.59189812 15.71205809 31.54833984 18.30908203 C33.86722449 22.01037868 34.01289234 24.37837457 33.93896484 28.72705078 C33.94089844 30.66064453 33.94089844 30.66064453 33.94287109 32.63330078 C33.29842049 36.72222873 32.36370396 38.40313515 29.37646484 41.22705078 C25.58390488 42.66378815 21.54444572 42.35323156 17.54833984 42.32470703 C16.79933411 42.32329208 16.05032837 42.32187714 15.27862549 42.32041931 C12.89453072 42.31483737 10.51053106 42.30228823 8.12646484 42.28955078 C6.50667454 42.28453345 4.88688275 42.27997095 3.26708984 42.27587891 C-0.69648827 42.26487386 -4.65999561 42.24762169 -8.62353516 42.22705078 C-8.62353516 39.25705078 -8.62353516 36.28705078 -8.62353516 33.22705078 C0.28646484 32.89705078 9.19646484 32.56705078 18.37646484 32.22705078 C18.70646484 30.57705078 19.03646484 28.92705078 19.37646484 27.22705078 C18.76649658 27.21246826 18.15652832 27.19788574 17.52807617 27.18286133 C14.7477542 27.10810303 11.96859661 27.01153596 9.18896484 26.91455078 C7.7494043 26.88071289 7.7494043 26.88071289 6.28076172 26.84619141 C-2.74086858 26.50280755 -2.74086858 26.50280755 -6.62353516 23.22705078 C-8.9796999 19.69280366 -8.92165795 18.04060976 -8.93603516 13.85205078 C-8.95279297 12.73056641 -8.96955078 11.60908203 -8.98681641 10.45361328 C-8.34742889 4.77475207 -5.93828474 0.37209303 0 0 Z " fill="#E77BFC" transform="translate(204.62353515625,298.77294921875)"/>
<path d="M0 0 C4.62 0 9.24 0 14 0 C14.33 4.95 14.66 9.9 15 15 C16.65 14.67 18.3 14.34 20 14 C20.33 9.71 20.66 5.42 21 1 C25.29 1 29.58 1 34 1 C34 14.86 34 28.72 34 43 C29.71 43 25.42 43 21 43 C20.67 38.38 20.34 33.76 20 29 C18.35 28.67 16.7 28.34 15 28 C14.67 32.95 14.34 37.9 14 43 C9.38 43 4.76 43 0 43 C0 28.81 0 14.62 0 0 Z " fill="#E47AF9" transform="translate(243,298)"/>
<path d="M0 0 C4.62 0 9.24 0 14 0 C14.33 9.9 14.66 19.8 15 30 C16.65 30.33 18.3 30.66 20 31 C20.33 21.1 20.66 11.2 21 1 C25.29 1 29.58 1 34 1 C34.0990984 6.03534236 34.1715758 11.07011342 34.21972656 16.10620117 C34.23980505 17.81821586 34.26707392 19.53016228 34.30175781 21.24194336 C34.35044401 23.70704008 34.37300573 26.1712279 34.390625 28.63671875 C34.41127014 29.39836838 34.43191528 30.16001801 34.45318604 30.94474792 C34.45473708 34.6429878 34.13047965 36.78973076 32.16308594 39.96020508 C28.03969616 43.84857094 23.4535452 43.18326427 18.125 43.1875 C17.32191406 43.19974609 16.51882812 43.21199219 15.69140625 43.22460938 C10.52936252 43.23736566 6.45448938 42.92852737 2.25 39.625 C-0.7456998 35.73059026 -0.1311595 30.86546798 -0.09765625 26.171875 C-0.0962413 25.42286926 -0.09482635 24.67386353 -0.09336853 23.90216064 C-0.08778659 21.51806588 -0.07523745 19.13406622 -0.0625 16.75 C-0.05748266 15.13020969 -0.05292016 13.51041791 -0.04882812 11.890625 C-0.03782308 7.92704688 -0.02057091 3.96353955 0 0 Z " fill="#E479F8" transform="translate(157,298)"/>
<path d="M0 0 C4.62 0 9.24 0 14 0 C14.25094503 4.6006588 14.14097826 8.05298683 12.5 12.375 C9.86438 19.66688199 10.27291158 26.00165105 13.33203125 33.0390625 C14.47044156 36.38106235 14.18738994 39.50205442 14 43 C9.38 43 4.76 43 0 43 C-0.33 38.38 -0.66 33.76 -1 29 C-2.65 29.33 -4.3 29.66 -6 30 C-6.33 34.29 -6.66 38.58 -7 43 C-11.29 43 -15.58 43 -20 43 C-20 29.14 -20 15.28 -20 1 C-15.71 1 -11.42 1 -7 1 C-6.67 5.29 -6.34 9.58 -6 14 C-4.35 14 -2.7 14 -1 14 C-0.67 9.38 -0.34 4.76 0 0 Z " fill="#E57AF9" transform="translate(139,298)"/>
<path d="M0 0 C4.29 0 8.58 0 13 0 C13 13.86 13 27.72 13 42 C8.71 42 4.42 42 0 42 C0 28.14 0 14.28 0 0 Z " fill="#EA7DFF" transform="translate(282,299)"/>
<path d="M0 0 C2.5625 0.3125 2.5625 0.3125 4.20703125 1.31640625 C6.35962103 4.48635835 5.91345898 7.87118716 5.8125 11.5625 C5.80734375 12.30113281 5.8021875 13.03976563 5.796875 13.80078125 C5.73215672 18.387689 5.30482015 22.78674165 4.5625 27.3125 C3.5725 26.9825 2.5825 26.6525 1.5625 26.3125 C0.2109375 23.51171875 0.2109375 23.51171875 -1.0625 20 C-1.48789063 18.84886719 -1.91328125 17.69773438 -2.3515625 16.51171875 C-4.0379579 11.5435251 -4.73219626 7.61703263 -4.4375 2.3125 C-2.4375 0.3125 -2.4375 0.3125 0 0 Z " fill="#AAB1D0" transform="translate(218.4375,192.6875)"/>
<path d="M0 0 C2.5625 0.3125 2.5625 0.3125 4.4375 1.375 C6.41911363 4.78777904 5.01614524 8.57410873 4.05517578 12.2565918 C3.47059037 14.22716263 2.83921783 16.17566543 2.1875 18.125 C1.97867187 18.79208984 1.76984375 19.45917969 1.5546875 20.14648438 C0.3484656 23.79089262 -0.14670036 25.11863357 -3.4375 27.3125 C-5.97059722 24.77940278 -4.62305171 17.78255092 -4.625 14.375 C-4.63724609 13.25158203 -4.64949219 12.12816406 -4.66210938 10.97070312 C-4.66404297 9.89884766 -4.66597656 8.82699219 -4.66796875 7.72265625 C-4.67207764 6.73402588 -4.67618652 5.74539551 -4.68041992 4.72680664 C-4.33773003 1.32091685 -3.37980404 0.43330821 0 0 Z " fill="#959BB9" transform="translate(264.4375,192.6875)"/>
<path d="M0 0 C0.68126953 -0.01224609 1.36253906 -0.02449219 2.06445312 -0.03710938 C5.79079809 -0.04805848 7.38241571 0.06744381 10.5625 2.1875 C10.75 4.8125 10.75 4.8125 10.5625 7.1875 C6.91856579 9.47979946 3.74488863 9.48660918 -0.5 9.5 C-1.72847656 9.51675781 -2.95695313 9.53351563 -4.22265625 9.55078125 C-7.4375 9.1875 -7.4375 9.1875 -9.3828125 7.83203125 C-10.4375 6.1875 -10.4375 6.1875 -10.25 3.5625 C-8.64024756 -1.1429302 -4.26794017 0.004015 0 0 Z " fill="#43465D" transform="translate(241.4375,224.8125)"/>
<path d="M0 0 C4.70588235 0.70588235 4.70588235 0.70588235 6 2 C6.25035974 5.30516934 6.18521952 8.62396041 6.1875 11.9375 C6.19974609 12.87013672 6.21199219 13.80277344 6.22460938 14.76367188 C6.22654297 15.65505859 6.22847656 16.54644531 6.23046875 17.46484375 C6.23457764 18.285896 6.23868652 19.10694824 6.24291992 19.95288086 C6 22 6 22 4 24 C1.375 23.625 1.375 23.625 -1 23 C-1.02887512 19.35418313 -1.04675585 15.70839537 -1.0625 12.0625 C-1.07087891 11.02158203 -1.07925781 9.98066406 -1.08789062 8.90820312 C-1.09272461 7.42416992 -1.09272461 7.42416992 -1.09765625 5.91015625 C-1.10289307 4.99371338 -1.10812988 4.07727051 -1.11352539 3.13305664 C-1 1 -1 1 0 0 Z " fill="#140B16" transform="translate(362,308)"/>
<path d="M0 0 C0.99 0.33 1.98 0.66 3 1 C5.04473111 6.16563649 5.72947668 11.46455934 5 17 C4.34 17.99 3.68 18.98 3 20 C0 20.3125 0 20.3125 -3 20 C-5 18 -5 18 -5.4375 14.5 C-5.34677894 9.01641564 -2.67145936 4.65597203 0 0 Z " fill="#AAB1CF" transform="translate(219,151)"/>
<path d="M0 0 C2.64275351 1.00702818 3.80953343 1.68713149 5.30078125 4.13671875 C7.47190248 9.61062672 8.58856662 13.25672069 7 19 C6 20 6 20 3.0625 20.1875 C0 20 0 20 -2 18 C-2.19893799 15.47524284 -2.27847435 13.08485251 -2.25 10.5625 C-2.25773437 9.88123047 -2.26546875 9.19996094 -2.2734375 8.49804688 C-2.25889434 4.78590558 -2.10940418 3.16410628 0 0 Z " fill="#A8AFCE" transform="translate(262,151)"/>
<path d="M0 0 C0.9796875 -0.01417969 1.959375 -0.02835938 2.96875 -0.04296875 C5.5 0.1875 5.5 0.1875 7.5 2.1875 C6.93181818 7.75568182 6.93181818 7.75568182 5.5 9.1875 C3.69072719 9.31237758 1.87603893 9.36320846 0.0625 9.375 C-0.92621094 9.38917969 -1.91492188 9.40335938 -2.93359375 9.41796875 C-5.5 9.1875 -5.5 9.1875 -7.5 7.1875 C-7.625 4.0625 -7.625 4.0625 -7.5 1.1875 C-4.89820337 -0.11339831 -2.9030812 0.01909922 0 0 Z " fill="#41445B" transform="translate(266.5,173.8125)"/>
<path d="M0 0 C1.46566406 -0.03867188 1.46566406 -0.03867188 2.9609375 -0.078125 C5.625 0.25 5.625 0.25 7.48828125 1.63671875 C8.625 3.25 8.625 3.25 8.4375 5.3125 C7.625 7.25 7.625 7.25 5.625 9.25 C3.34765625 9.55078125 3.34765625 9.55078125 0.6875 9.5625 C-0.62541016 9.58763672 -0.62541016 9.58763672 -1.96484375 9.61328125 C-4.375 9.25 -4.375 9.25 -6.20703125 7.89453125 C-7.375 6.25 -7.375 6.25 -7.125 3.625 C-5.80173501 -0.56533914 -4.16501298 0.06559076 0 0 Z " fill="#43455C" transform="translate(216.375,173.75)"/>
<path d="M0 0 C1.08152344 -0.01417969 2.16304688 -0.02835937 3.27734375 -0.04296875 C6.0625 0.1875 6.0625 0.1875 8.0625 2.1875 C7.6875 4.8125 7.6875 4.8125 7.0625 7.1875 C4.91673363 7.21435938 2.77087355 7.23383088 0.625 7.25 C-0.56996094 7.26160156 -1.76492188 7.27320313 -2.99609375 7.28515625 C-5.9375 7.1875 -5.9375 7.1875 -6.9375 6.1875 C-7.0625 3.6875 -7.0625 3.6875 -6.9375 1.1875 C-5.13003866 -0.61996134 -2.43304219 0.01446517 0 0 Z " fill="#0C070D" transform="translate(320.9375,307.8125)"/>
<path d="M0 0 C0.99 0 1.98 0 3 0 C2.52550099 9.14034937 1.7270386 17.99592496 0 27 C-0.66 26.67 -1.32 26.34 -2 26 C-2.05785647 22.04172765 -2.09354717 18.0835633 -2.125 14.125 C-2.14175781 12.99707031 -2.15851563 11.86914062 -2.17578125 10.70703125 C-2.18222656 9.63066406 -2.18867188 8.55429688 -2.1953125 7.4453125 C-2.20578613 6.45031738 -2.21625977 5.45532227 -2.22705078 4.43017578 C-2 2 -2 2 0 0 Z " fill="#A8AFCE" transform="translate(262,193)"/>
<path d="M0 0 C4.29 0 8.58 0 13 0 C13 0.99 13 1.98 13 3 C10.59454362 4.20272819 9.05003047 4.10071472 6.375 4.0625 C5.14910156 4.04896484 5.14910156 4.04896484 3.8984375 4.03515625 C2.95871094 4.01775391 2.95871094 4.01775391 2 4 C1.34 2.68 0.68 1.36 0 0 Z " fill="#B0B6D3" transform="translate(235,236)"/>
<path d="M0 0 C3.63 0.33 7.26 0.66 11 1 C10.67 2.32 10.34 3.64 10 5 C8.741875 5.04125 7.48375 5.0825 6.1875 5.125 C5.47980469 5.14820313 4.77210938 5.17140625 4.04296875 5.1953125 C2 5 2 5 -1 3 C-0.67 2.01 -0.34 1.02 0 0 Z " fill="#54566B" transform="translate(260,184)"/>
<path d="M0 0 C3.96 0 7.92 0 12 0 C11 3 11 3 9 4 C6.3276379 4.13415472 3.67749512 4.04318541 1 4 C0.67 2.68 0.34 1.36 0 0 Z " fill="#4C4F64w" transform="translate(212,185)"/>
<path d="M0 0 C0.99 0.495 0.99 0.495 2 1 C3.29411765 8.41176471 3.29411765 8.41176471 2 11 C1.34 11 0.68 11 0 11 C0 7.37 0 3.74 0 0 Z " fill="#9AA0BB" transform="translate(267,159)"/>
</svg>
